# xmcd
#
# Track frame offsets: 
#        187
#        17462
#        42562
#
# Disc length: 920 seconds
#
# Revision: 0
# Processed by: cddbd v1.5.2PL0 Copyright (c) Steve Scherf et al.
# Submitted via: ExactAudioCopy v1.0b3
#
DISCID=1b039603
DTITLE=Media Luna - We Can Live Together (Remixes)
DYEAR=1900
DGENRE=
TTITLE0=We Can Live Together (Remix Radio Edit)
TTITLE1=We Can Live Together (Remix Long Version)
TTITLE2=We Can Live Together (Dance Remix)
EXTD=
EXTT0=
EXTT1=
EXTT2=
PLAYORDER=
